# xmcd
#
# Track frame offsets:
#	150
#	16312
#	31383
#	49712
#	68650
#	82193
#	94547
#	113399
#	137906
#	150775
#	170496
#	184119
#	204518
#	227651
#	239809
#	253944
#
# Disc length: 3593 seconds
#
# Revision: 0
# Processed by: cddbd v1.5.2PL0 Copyright (c) Steve Scherf et al.
# Submitted via: audiograbber 1.83.01
#
DISCID=cd0e0710
DTITLE=Flinkfinger - The Irish Collection
DYEAR=2003
DGENRE=Celtic
TTITLE0=Boys Of Blue Hill/ Johnny Mackelwood No1/ Silver Spear
TTITLE1=New York Girls
TTITLE2=Right Of Men/ Pride Of Petravore
TTITLE3=The Nightingale
TTITLE4=Tobin´s Favourite/ Smash The Windows/ Haste To The wedding
TTITLE5=Sayonara
TTITLE6=Golden Keyboard/ Merry Blacksmith
TTITLE7=Sandlark/ Wonder Hornpipe/ Cork Hornpipe
TTITLE8=Aragon Mill
TTITLE9=Staten Island
TTITLE10=Dingle Regatta/ The Irish Washerwoman
TTITLE11=The Ballad Of St. Anne´s Reel
TTITLE12=King Of The Fairies/ Sally Gardens/ MAid Behind The Bar
TTITLE13=Musical Priest/ Peter´s Street
TTITLE14=Dirty Old Town
TTITLE15=Blarney Pilgrim/ Kesh Jig
EXTD=
EXTT0=
EXTT1=
EXTT2=
EXTT3=
EXTT4=
EXTT5=
EXTT6=
EXTT7=
EXTT8=
EXTT9=
EXTT10=
EXTT11=
EXTT12=
EXTT13=
EXTT14=
EXTT15=
PLAYORDER=
